<svg width="708" height="531" viewBox="0 0 708 531" fill="none" xmlns="http://www.w3.org/2000/svg">
<g clip-path="url(#clip0_8_78)">
<path opacity="0.1" d="M611.172 410.755H682.229C686.087 408.764 688.733 404.719 688.733 400.055C688.733 394.02 684.3 389.019 678.529 388.161C678.538 387.966 678.547 387.772 678.547 387.568C678.547 380.506 672.706 374.78 665.502 374.78C664.75 374.78 664.015 374.842 663.29 374.966C660.183 369.576 654.121 365.921 647.156 365.921C639.041 365.921 632.155 370.886 629.739 377.771C628.978 377.621 628.191 377.532 627.394 377.532C620.473 377.532 614.863 383.488 614.863 390.834C614.863 391.657 614.933 392.471 615.066 393.25C609.827 393.586 605.685 397.595 605.685 402.498C605.685 406.1 607.915 409.215 611.172 410.755Z" fill="white"/>
<path d="M659.502 300.511C659.502 136.989 526.938 4.42499 363.408 4.42499C199.886 4.42499 67.322 136.989 67.322 300.511C67.322 393.79 110.475 476.98 177.885 531.248H548.939C616.349 476.98 659.502 393.79 659.502 300.511Z" fill="url(#paint0_linear_8_78)"/>
<path opacity="0.4" d="M445.748 185.452C445.748 187.275 445.173 188.744 444.465 188.744H371.673C370.965 188.744 370.39 187.266 370.39 185.452C370.39 183.629 370.965 182.16 371.673 182.16H444.465C445.173 182.16 445.748 183.638 445.748 185.452Z" fill="white"/>
<path opacity="0.4" d="M590.383 155.751C590.383 157.574 588.702 159.043 586.631 159.043H374.143C372.072 159.043 370.39 157.565 370.39 155.751C370.39 153.928 372.072 152.459 374.143 152.459H586.631C588.702 152.459 590.383 153.937 590.383 155.751ZM516.052 169.752C516.052 171.575 514.937 173.044 513.565 173.044H372.868C371.496 173.044 370.381 171.566 370.381 169.752C370.381 167.929 371.496 166.46 372.868 166.46H513.565C514.937 166.46 516.052 167.929 516.052 169.752Z" fill="white"/>
<path fill-rule="evenodd" clip-rule="evenodd" d="M266.137 515.486V514.725H314.874L266.137 515.486ZM250.924 515.486L208.993 514.725H250.924V515.486Z" fill="white"/>
<path d="M569.17 449.191C569.17 449.191 567.258 437.093 567.444 434.491C567.63 431.889 568.347 418.145 568.347 418.145L570.197 416.499C570.197 416.499 568.373 431.809 568.604 436.332C568.825 440.845 569.17 449.191 569.17 449.191Z" fill="url(#paint1_linear_8_78)"/>
<path fill-rule="evenodd" clip-rule="evenodd" d="M490.892 329.034H501.14V531.027H490.892V329.034Z" fill="#1289CC"/>
<path fill-rule="evenodd" clip-rule="evenodd" d="M485.856 329.034H496.104V531.027H485.856V329.034Z" fill="black"/>
<path fill-rule="evenodd" clip-rule="evenodd" d="M523.964 329.034H534.168V531.027H523.964V329.034Z" fill="#1289CC"/>
<path fill-rule="evenodd" clip-rule="evenodd" d="M518.929 329.034H529.133V531.027H518.929V329.034Z" fill="black"/>
<path fill-rule="evenodd" clip-rule="evenodd" d="M273.934 329.034H284.182V531.027H273.934V329.034Z" fill="#125CAE"/>
<path fill-rule="evenodd" clip-rule="evenodd" d="M268.907 329.034H279.156V531.027H268.907V329.034Z" fill="black"/>
<path fill-rule="evenodd" clip-rule="evenodd" d="M307.007 329.034H317.211V531.027H307.007V329.034Z" fill="#1289CC"/>
<path fill-rule="evenodd" clip-rule="evenodd" d="M301.98 329.034H312.184V531.027H301.98V329.034Z" fill="black"/>
<path fill-rule="evenodd" clip-rule="evenodd" d="M231.419 320.653H553.957V340.663H231.419V320.653Z" fill="black"/>
<path fill-rule="evenodd" clip-rule="evenodd" d="M375.444 248.658L474.705 241.667L476.289 245.145L463.271 316.166H458.696L360.584 322.184L375.444 248.658Z" fill="url(#paint2_linear_8_78)"/>
<path fill-rule="evenodd" clip-rule="evenodd" d="M371.974 241.667H474.351L459.492 315.237H357.106L371.974 241.667Z" fill="black"/>
<path fill-rule="evenodd" clip-rule="evenodd" d="M431.694 315.104H459.793V320.644H431.694V315.104Z" fill="url(#paint3_linear_8_78)"/>
<path fill-rule="evenodd" clip-rule="evenodd" d="M337.052 315.104H431.694V320.644H337.052V315.104Z" fill="#431CA3"/>
<path fill-rule="evenodd" clip-rule="evenodd" d="M375.444 245.933L362.292 310.927H455.97L469.121 245.933H375.444Z" fill="#3F2759"/>
<path fill-rule="evenodd" clip-rule="evenodd" d="M392.683 320.653C395.852 321.043 402.533 320.034 407.286 316.963C411.994 313.883 415.729 310.962 415.729 310.962C415.729 310.962 425.986 312.299 426.641 309.954C426.924 306.821 413.348 303.113 411.463 302.891C409.525 302.67 393.613 304.909 391.984 306.537C390.356 308.157 392.683 320.653 392.683 320.653ZM339.645 311.724C342.814 312.122 349.495 311.113 354.204 308.033C358.912 304.953 363.399 300.466 363.399 300.466C363.399 300.466 373.647 301.431 373.426 300.466C373.16 299.546 360.319 294.174 358.381 293.962C356.487 293.74 340.53 295.988 338.902 297.617C337.273 299.227 339.645 311.724 339.645 311.724Z" fill="white"/>
<path fill-rule="evenodd" clip-rule="evenodd" d="M358.248 299.325C359.257 300.599 365.682 305.396 364.452 307.237C363.222 309.131 360.275 309.918 357.062 307.591C353.85 305.263 351.832 302.528 352.708 301.608C353.593 300.688 358.248 299.325 358.248 299.325Z" fill="white"/>
<path fill-rule="evenodd" clip-rule="evenodd" d="M221.524 235.95C211.763 239.906 214.09 258.73 218.533 272.235C222.932 285.74 268.536 317.618 282.041 321.14C295.546 324.618 347.92 308.254 347.92 308.254C351.478 300.997 348.407 293.298 341.937 294.97C341.937 294.97 290.882 302.971 283.227 294.139C277.067 287.05 231.861 231.773 221.524 235.95Z" fill="url(#paint4_linear_8_78)"/>
<path fill-rule="evenodd" clip-rule="evenodd" d="M262.863 211.497C246.897 243.64 214.09 232.914 206.355 202.178C198.612 171.478 196.594 144.963 223.507 140.299C252.747 135.237 278.872 179.345 262.863 211.497Z" fill="url(#paint5_linear_8_78)"/>
<path fill-rule="evenodd" clip-rule="evenodd" d="M212.904 212.205C215.94 221.746 215.011 247.34 215.011 247.34C215.011 247.34 258.199 259.916 256.88 254.11C251.605 230.578 248.924 210.002 244.083 205.692C240.083 202.169 230.233 214.002 212.904 212.205Z" fill="white"/>
<path fill-rule="evenodd" clip-rule="evenodd" d="M300.9 501.928C300.9 501.928 310.175 513.141 322.184 518.159C334.194 523.177 339.601 525.327 337.663 528.407C335.725 531.487 320.335 530.035 308.723 530.434C297.156 530.832 289.333 531.708 288.935 528.018C288.537 524.371 290.386 504.096 290.386 504.096L300.9 501.928Z" fill="black"/>
<path fill-rule="evenodd" clip-rule="evenodd" d="M284.014 414.676C284.457 427.251 288.722 521.566 288.722 521.566C291.705 525.009 311.423 517.937 312.803 513.15C312.803 513.15 321.264 408.162 317.963 407.675C314.715 407.242 284.014 414.676 284.014 414.676Z" fill="url(#paint6_linear_8_78)"/>
<path fill-rule="evenodd" clip-rule="evenodd" d="M402.233 502.37C402.233 502.37 411.516 513.583 423.473 518.645C435.482 523.663 440.889 525.77 438.951 528.894C437.013 531.973 421.623 530.478 410.056 530.876C398.445 531.274 390.621 532.15 390.223 528.504C389.825 524.814 391.674 504.538 391.674 504.538L402.233 502.37Z" fill="black"/>
<path fill-rule="evenodd" clip-rule="evenodd" d="M220.029 376.718C218.622 386.524 203.709 401.878 221.878 417.224C240.039 432.57 356.982 419.596 358.478 421.667C359.974 423.694 388.913 523.194 388.913 523.194C388.913 523.194 413.95 522.407 412.64 512.158C402.976 485.467 404.569 400.25 385.002 390.922C365.461 381.603 220.029 376.718 220.029 376.718Z" fill="url(#paint7_linear_8_78)"/>
<path fill-rule="evenodd" clip-rule="evenodd" d="M267.96 238.499C251.207 234.056 201.134 230.472 194.426 244.791C178.85 278.04 191.249 405.799 212.931 407.905C226.87 409.268 296.059 407.153 298.387 382.046C301.431 349.017 270.863 301.254 267.96 238.499Z" fill="url(#paint8_linear_8_78)"/>
<path fill-rule="evenodd" clip-rule="evenodd" d="M193.089 342.752H210.064V427.012H193.089V342.752Z" fill="white"/>
<path fill-rule="evenodd" clip-rule="evenodd" d="M189.479 342.07H206.453V426.331H189.479V342.07Z" fill="black"/>
<path fill-rule="evenodd" clip-rule="evenodd" d="M267.96 238.499C258.199 242.455 260.482 261.323 264.925 274.828C269.367 288.289 314.971 320.166 328.477 323.689C341.982 327.167 395.984 320.352 395.984 320.352C399.507 313.095 396.471 305.396 389.958 307.068C389.958 307.068 337.273 305.529 329.618 296.687C323.512 289.599 278.253 234.321 267.96 238.499Z" fill="url(#paint9_linear_8_78)"/>
<path fill-rule="evenodd" clip-rule="evenodd" d="M250.986 170.947C247.862 166.991 256.393 183.522 253.8 190.47C253.845 183.036 235.817 174.062 242.764 194.249C243.605 196.709 244.649 207.232 244.649 207.232C244.472 211.568 222.294 224.666 214.975 219.622C208.338 215.754 197.824 200.187 191.098 182.726C184.328 165.265 196.196 156.733 196.196 156.733C196.196 156.733 194.567 152.291 199.93 143.936C204.108 137.343 266.385 124.281 263.04 153.034C262.332 158.981 256.092 164.132 250.986 170.947Z" fill="black"/>
<path fill-rule="evenodd" clip-rule="evenodd" d="M177.779 274.085H242.375C247.048 274.085 250.906 279.271 250.906 285.607V333.804C250.906 340.141 247.048 345.327 242.375 345.327H177.779C173.071 345.327 169.221 340.141 169.221 333.804V285.607C169.221 279.271 173.071 274.085 177.779 274.085Z" fill="white"/>
<path fill-rule="evenodd" clip-rule="evenodd" d="M171.433 274.226H236.03C240.702 274.226 244.561 279.412 244.561 285.749V333.946C244.561 340.282 240.702 345.469 236.03 345.469H171.433C166.725 345.469 162.875 340.282 162.875 333.946V285.749C162.867 279.412 166.725 274.226 171.433 274.226ZM250.924 430.685H266.137V516.574H250.924V430.685Z" fill="black"/>
<path fill-rule="evenodd" clip-rule="evenodd" d="M204.258 514.725H314.777V520.752H204.258V514.725Z" fill="black"/>
<path fill-rule="evenodd" clip-rule="evenodd" d="M312.449 530.336C316.936 530.336 320.538 526.725 320.538 522.292C320.538 517.805 316.936 514.203 312.449 514.203C308.007 514.203 304.405 517.805 304.405 522.292C304.396 526.734 308.007 530.336 312.449 530.336ZM257.553 530.159C262.04 530.159 265.642 526.548 265.642 522.115C265.642 517.628 262.031 514.026 257.553 514.026C253.11 514.026 249.508 517.628 249.508 522.115C249.499 526.548 253.11 530.159 257.553 530.159ZM204.612 530.336C209.055 530.336 212.701 526.725 212.701 522.292C212.701 517.805 209.055 514.203 204.612 514.203C200.169 514.203 196.523 517.805 196.523 522.292C196.523 526.734 200.169 530.336 204.612 530.336ZM187.178 417.224H329.84C335.247 417.224 339.645 421.623 339.645 426.986C339.645 432.393 335.247 436.792 329.84 436.792H187.178C181.814 436.792 177.416 432.393 177.416 426.986C177.416 421.623 181.814 417.224 187.178 417.224Z" fill="black"/>
<path fill-rule="evenodd" clip-rule="evenodd" d="M211.506 236.021C211.727 233.206 213.719 225.286 213.719 225.286C213.719 225.286 246.083 223.082 253.783 226.693C254.986 227.259 262.464 238.277 262.464 238.277C242.056 234.578 224.595 234.401 211.506 236.021Z" fill="#BCD8FA"/>
<path fill-rule="evenodd" clip-rule="evenodd" d="M375.444 245.933H469.121L468.528 248.844L374.824 249.021L375.444 245.933ZM455.492 256.057C455.492 256.5 455.138 256.854 454.695 256.854H380.63C380.187 256.854 379.833 256.5 379.833 256.057C379.833 255.615 380.187 255.261 380.63 255.261H454.695C455.138 255.261 455.492 255.615 455.492 256.057ZM440.942 260.579C440.942 261.022 440.65 261.376 440.288 261.376H379.568C379.205 261.376 378.913 261.022 378.913 260.579C378.913 260.137 379.205 259.783 379.568 259.783H440.288C440.65 259.783 440.942 260.146 440.942 260.579ZM440.04 266.173C440.04 266.615 439.748 266.969 439.385 266.969H378.665C378.302 266.969 378.01 266.615 378.01 266.173C378.01 265.73 378.302 265.376 378.665 265.376H439.385C439.748 265.376 440.04 265.73 440.04 266.173ZM452.474 271.067C452.474 271.509 452.12 271.863 451.677 271.863H377.532C377.09 271.863 376.736 271.509 376.736 271.067C376.736 270.624 377.09 270.27 377.532 270.27H451.677C452.12 270.27 452.474 270.633 452.474 271.067ZM449.73 282.722C449.73 283.165 449.376 283.519 448.934 283.519H374.789C374.346 283.519 373.992 283.165 373.992 282.722C373.992 282.28 374.346 281.926 374.789 281.926H448.934C449.368 281.926 449.73 282.28 449.73 282.722ZM422.888 276.598C422.888 277.04 422.667 277.394 422.393 277.394H376.24C375.966 277.394 375.744 277.04 375.744 276.598C375.744 276.155 375.966 275.801 376.24 275.801H422.393C422.667 275.801 422.888 276.155 422.888 276.598ZM407.463 287.802C407.463 288.245 407.304 288.599 407.109 288.599H373.789C373.594 288.599 373.435 288.245 373.435 287.802C373.435 287.36 373.594 287.005 373.789 287.005H407.1C407.304 287.005 407.463 287.36 407.463 287.802ZM432.898 293.944C432.898 294.386 432.615 294.74 432.261 294.74H372.612C372.258 294.74 371.974 294.386 371.974 293.944C371.974 293.501 372.266 293.147 372.612 293.147H432.261C432.606 293.147 432.898 293.501 432.898 293.944Z" fill="#1E8191"/>
<path d="M344.212 95.9606C344.212 96.6066 343.69 97.1288 343.044 97.1288C342.398 97.1288 341.875 96.6066 341.875 95.9606C341.875 95.3145 342.398 94.7924 343.044 94.7924C343.69 94.7924 344.212 95.3145 344.212 95.9606ZM428.021 168.398C428.021 169.044 427.499 169.566 426.853 169.566C426.207 169.566 425.676 169.044 425.676 168.398C425.676 167.752 426.198 167.23 426.853 167.23C427.508 167.23 428.021 167.743 428.021 168.398ZM305.573 105.377C305.573 106.023 305.051 106.545 304.405 106.545C303.759 106.545 303.236 106.023 303.236 105.377C303.236 104.731 303.759 104.2 304.405 104.2C305.051 104.209 305.573 104.731 305.573 105.377ZM211.232 104.209C211.232 104.855 210.71 105.377 210.064 105.377C209.418 105.377 208.895 104.855 208.895 104.209C208.895 103.563 209.418 103.041 210.064 103.041C210.71 103.032 211.232 103.563 211.232 104.209ZM543.425 243.605C543.425 244.251 542.903 244.773 542.257 244.773C541.611 244.773 541.08 244.251 541.08 243.605C541.08 242.959 541.602 242.437 542.257 242.437C542.912 242.437 543.425 242.959 543.425 243.605ZM547.275 165.504L548.523 168.035L551.311 168.433L549.293 170.407L549.771 173.186L547.275 171.876L544.779 173.186L545.248 170.407L543.231 168.433L546.027 168.035L547.275 165.504ZM258.155 62.8173L259.712 65.9768L263.199 66.4812L260.677 68.9415L261.27 72.4196L258.155 70.7735L255.03 72.4196L255.623 68.9415L253.101 66.4812L256.588 65.9768L258.155 62.8173ZM607.685 217.533L609.252 220.692L612.739 221.197L610.216 223.657L610.809 227.135L607.685 225.489L604.57 227.135L605.163 223.657L602.641 221.197L606.128 220.692L607.685 217.533Z" fill="white"/>
<path d="M147.423 212.276C149.706 212.276 151.556 210.426 151.556 208.143C151.556 205.861 149.706 204.01 147.423 204.01C145.141 204.01 143.29 205.861 143.29 208.143C143.29 210.426 145.141 212.276 147.423 212.276Z" fill="white"/>
<mask id="mask0_8_78" style="mask-type:alpha" maskUnits="userSpaceOnUse" x="449" y="50" width="83" height="83">
<path d="M461.032 120.378C477.05 136.467 503.069 136.538 519.168 120.528C535.257 104.519 535.328 78.4907 519.318 62.4014C503.308 46.3121 477.281 46.2413 461.191 62.2509C445.093 78.2606 445.022 104.288 461.032 120.378Z" fill="url(#paint10_linear_8_78)"/>
</mask>
<g mask="url(#mask0_8_78)">
<path d="M461.032 120.378C477.05 136.467 503.069 136.538 519.168 120.528C535.257 104.519 535.328 78.4907 519.318 62.4014C503.308 46.3121 477.281 46.2413 461.191 62.2509C445.093 78.2606 445.022 104.288 461.032 120.378Z" fill="white"/>
<path d="M73.8267 313.343L362.292 310.927L368.682 311.166L455.97 310.927L469.121 245.933L118.139 65.0652" fill="url(#paint11_linear_8_78)"/>
<path opacity="0.2" d="M442.173 102.616C438.871 102.616 435.783 103.518 433.146 105.094C432.517 95.8898 424.853 88.6239 415.499 88.6239C413.215 88.6239 411.038 89.0576 409.038 89.8452C406.489 81.3138 398.586 75.0923 389.223 75.0923C377.806 75.0923 368.541 84.3494 368.541 95.7747C368.541 96.0668 368.549 96.3588 368.567 96.642H368.541C357.124 96.642 347.858 105.899 347.858 117.324C347.858 128.741 357.115 138.007 368.541 138.007C369.257 138.007 369.957 137.972 370.656 137.901H440.243C440.88 137.972 441.518 138.007 442.173 138.007C451.943 138.007 459.864 130.086 459.864 120.316C459.864 110.537 451.943 102.616 442.173 102.616Z" fill="url(#paint12_linear_8_78)"/>
</g>
</g>
<defs>
<linearGradient id="paint0_linear_8_78" x1="363.412" y1="-1.18237" x2="363.412" y2="531.804" gradientUnits="userSpaceOnUse">
<stop stop-color="#7700BB"/>
<stop offset="1"/>
</linearGradient>
<linearGradient id="paint1_linear_8_78" x1="567.425" y1="432.839" x2="570.189" y2="432.839" gradientUnits="userSpaceOnUse">
<stop offset="0.041" stop-color="#100060"/>
<stop offset="1" stop-color="#090E96"/>
</linearGradient>
<linearGradient id="paint2_linear_8_78" x1="360.583" y1="281.926" x2="476.288" y2="281.926" gradientUnits="userSpaceOnUse">
<stop stop-color="#A1BAFF"/>
<stop offset="0.433" stop-color="white"/>
</linearGradient>
<linearGradient id="paint3_linear_8_78" x1="431.695" y1="317.88" x2="459.796" y2="317.88" gradientUnits="userSpaceOnUse">
<stop stop-color="#A1BAFF"/>
<stop offset="0.433" stop-color="white"/>
</linearGradient>
<linearGradient id="paint4_linear_8_78" x1="214.698" y1="278.67" x2="349.419" y2="278.67" gradientUnits="userSpaceOnUse">
<stop stop-color="#311341"/>
<stop offset="0.23" stop-color="#3113C2"/>
<stop offset="0.348" stop-color="#2F18C5"/>
<stop offset="0.493" stop-color="#2927CC"/>
<stop offset="0.652" stop-color="#1F40D8"/>
<stop offset="0.822" stop-color="#1263E9"/>
<stop offset="0.998" stop-color="#008FFF"/>
<stop offset="1" stop-color="#0090FF"/>
</linearGradient>
<linearGradient id="paint5_linear_8_78" x1="230.272" y1="173.602" x2="254.15" y2="236.999" gradientUnits="userSpaceOnUse">
<stop stop-color="#A1BAFF"/>
<stop offset="0.433" stop-color="white"/>
</linearGradient>
<linearGradient id="paint6_linear_8_78" x1="301.634" y1="420.269" x2="305.751" y2="514.953" gradientUnits="userSpaceOnUse">
<stop offset="0.041" stop-color="#100022"/>
<stop offset="1" stop-color="#090E96"/>
</linearGradient>
<linearGradient id="paint7_linear_8_78" x1="295.718" y1="394.922" x2="405.504" y2="520.077" gradientUnits="userSpaceOnUse">
<stop offset="0.041" stop-color="#10003B"/>
<stop offset="1" stop-color="#090E96"/>
</linearGradient>
<linearGradient id="paint8_linear_8_78" x1="187.455" y1="321.397" x2="298.608" y2="321.397" gradientUnits="userSpaceOnUse">
<stop stop-color="#7633FF"/>
<stop offset="0.159" stop-color="#7137FF"/>
<stop offset="0.353" stop-color="#6243FF"/>
<stop offset="0.568" stop-color="#4957FF"/>
<stop offset="0.794" stop-color="#2672FF"/>
<stop offset="1" stop-color="#0090FF"/>
</linearGradient>
<linearGradient id="paint9_linear_8_78" x1="265.478" y1="269.087" x2="394.089" y2="314.369" gradientUnits="userSpaceOnUse">
<stop stop-color="#7633FF"/>
<stop offset="0.097" stop-color="#7137FF"/>
<stop offset="0.216" stop-color="#6243FF"/>
<stop offset="0.346" stop-color="#4957FF"/>
<stop offset="0.484" stop-color="#2672FF"/>
<stop offset="0.61" stop-color="#0090FF"/>
</linearGradient>
<linearGradient id="paint10_linear_8_78" x1="497.932" y1="52.8301" x2="481.721" y2="133.432" gradientUnits="userSpaceOnUse">
<stop stop-color="#4D4D4D"/>
<stop offset="0.293" stop-color="#898989"/>
<stop offset="0.628" stop-color="#C8C8C8"/>
<stop offset="0.873" stop-color="#F0F0F0"/>
<stop offset="1" stop-color="white"/>
</linearGradient>
<linearGradient id="paint11_linear_8_78" x1="99.8138" y1="189.952" x2="555.17" y2="278.464" gradientUnits="userSpaceOnUse">
<stop offset="0.004" stop-color="#7633FF" stop-opacity="0"/>
<stop offset="0.092" stop-color="#7051FF" stop-opacity="0.088"/>
<stop offset="0.263" stop-color="#6685FF" stop-opacity="0.26"/>
<stop offset="0.43" stop-color="#5EB1FF" stop-opacity="0.428"/>
<stop offset="0.591" stop-color="#57D3FF" stop-opacity="0.589"/>
<stop offset="0.743" stop-color="#53EBFF" stop-opacity="0.742"/>
<stop offset="0.883" stop-color="#50FAFF" stop-opacity="0.883"/>
<stop offset="1" stop-color="#4FFFFF"/>
</linearGradient>
<linearGradient id="paint12_linear_8_78" x1="347.862" y1="106.551" x2="459.866" y2="106.551" gradientUnits="userSpaceOnUse">
<stop stop-color="#A1BAFF"/>
<stop offset="0.089" stop-color="#ACC2FF"/>
<stop offset="0.499" stop-color="#D9E3FF"/>
<stop offset="0.816" stop-color="#F5F7FF"/>
<stop offset="1" stop-color="white"/>
</linearGradient>
<clipPath id="clip0_8_78">
<rect width="708" height="531" fill="white"/>
</clipPath>
</defs>
</svg>
