<svg width="32" height="33" viewBox="0 0 32 33" fill="none" xmlns="http://www.w3.org/2000/svg">
<path d="M26.5 4.77142H5.5C4.94772 4.77142 4.5 5.21914 4.5 5.77142V26.7714C4.5 27.3237 4.94772 27.7714 5.5 27.7714H26.5C27.0523 27.7714 27.5 27.3237 27.5 26.7714V5.77142C27.5 5.21914 27.0523 4.77142 26.5 4.77142Z" stroke="#FCCA1C" stroke-width="3" stroke-linecap="round" stroke-linejoin="round"/>
<path d="M15.5 15.2714V22.2714" stroke="#FCCA1C" stroke-width="3" stroke-linecap="round" stroke-linejoin="round"/>
<path d="M10.5 15.2714V22.2714" stroke="#FCCA1C" stroke-width="3" stroke-linecap="round" stroke-linejoin="round"/>
<path d="M15.5 18.7714C15.5 17.8432 15.8687 16.9529 16.5251 16.2965C17.1815 15.6402 18.0717 15.2714 19 15.2714C19.9283 15.2714 20.8185 15.6402 21.4749 16.2965C22.1313 16.9529 22.5 17.8432 22.5 18.7714V22.2714" stroke="#FCCA1C" stroke-width="3" stroke-linecap="round" stroke-linejoin="round"/>
<path d="M10.5 12.2714C11.6046 12.2714 12.5 11.376 12.5 10.2714C12.5 9.16685 11.6046 8.27142 10.5 8.27142C9.39543 8.27142 8.5 9.16685 8.5 10.2714C8.5 11.376 9.39543 12.2714 10.5 12.2714Z" fill="#FCCA1C"/>
</svg>
